<svg width="18" height="18" viewBox="0 0 18 18" fill="none" xmlns="http://www.w3.org/2000/svg">
<path fill-rule="evenodd" clip-rule="evenodd" d="M11.4227 12.6C10.2938 13.4775 8.87523 14.0001 7.33464 14.0001C3.65274 14.0001 0.667969 11.0153 0.667969 7.33342C0.667969 3.65152 3.65274 0.666748 7.33464 0.666748C11.0165 0.666748 14.0013 3.65152 14.0013 7.33342C14.0013 8.87401 13.4787 10.2925 12.6012 11.4215L17.0906 15.9108C17.416 16.2363 17.416 16.7639 17.0906 17.0893C16.7651 17.4148 16.2375 17.4148 15.912 17.0893L11.4227 12.6ZM12.3346 7.33342C12.3346 10.0948 10.0961 12.3334 7.33464 12.3334C4.57321 12.3334 2.33464 10.0948 2.33464 7.33342C2.33464 4.57199 4.57321 2.33341 7.33464 2.33341C10.0961 2.33341 12.3346 4.57199 12.3346 7.33342Z" fill="#777E91"/>
</svg>
